<svg preserveAspectRatio="xMidYMid meet" data-bbox="12.335 29.5 172.265 141" viewBox="12.335 29.5 172.265 141" height="200" width="200" xmlns="http://www.w3.org/2000/svg" data-type="color" role="presentation" aria-hidden="true" aria-label=""><defs><style>#comp-kpf47s00 svg [data-color="1"] {fill: #F6F3ED;}
#comp-kpf47s00 svg [data-color="2"] {fill: #CAFF00;}</style></defs>
    <g>
        <path d="M114.1 170.5c-30.2 0-57-19.2-66.7-47.8-.5-1.6.3-3.3 1.9-3.8 1.6-.5 3.3.3 3.8 1.9 8.9 26.1 33.4 43.7 61 43.7 35.5 0 64.5-28.9 64.5-64.5 0-35.5-28.9-64.5-64.5-64.5-27.6 0-52.1 17.6-61 43.7-.5 1.6-2.2 2.4-3.8 1.9-1.6-.5-2.4-2.2-1.9-3.8 9.7-28.6 36.5-47.8 66.7-47.8 38.9 0 70.5 31.6 70.5 70.5s-31.6 70.5-70.5 70.5z" fill="#f6f3ed" data-color="1"></path>
        <path d="M146.1 97.9l-35-35c-1.2-1.2-3.1-1.2-4.2 0-1.2 1.2-1.2 3.1 0 4.2l27.4 27.4c.9.9.3 2.5-1 2.5H15.5c-1.5 0-2.8 1-3.1 2.4-.4 1.9 1.1 3.6 2.9 3.6h117.9c1.3 0 1.9 1.6 1 2.5l-27.4 27.4c-1.2 1.2-1.2 3.1 0 4.2.6.6 1.4.9 2.1.9s1.5-.3 2.1-.9l35-35c1.3-1.1 1.3-3 .1-4.2z" fill="#CAFF00" data-color="2"></path>
    </g>
</svg>